<?xml version="1.0" encoding="UTF-8" standalone="no"?>
<svg
   xmlns:dc="http://purl.org/dc/elements/1.1/"
   xmlns:cc="http://creativecommons.org/ns#"
   xmlns:rdf="http://www.w3.org/1999/02/22-rdf-syntax-ns#"
   xmlns:svg="http://www.w3.org/2000/svg"
   xmlns="http://www.w3.org/2000/svg"
   xmlns:sodipodi="http://sodipodi.sourceforge.net/DTD/sodipodi-0.dtd"
   xmlns:inkscape="http://www.inkscape.org/namespaces/inkscape"
   id="ps_x5F_cc_x5F_app_x5F_RGB.svg"
   viewBox="0 0 240 234"
   version="1.1"
   sodipodi:docname="adobe-xd.svg"
   inkscape:version="0.92.4 (5da689c313, 2019-01-14)">
  <metadata
     id="metadata15">
    <rdf:RDF>
      <cc:Work
         rdf:about="">
        <dc:format>image/svg+xml</dc:format>
        <dc:type
           rdf:resource="http://purl.org/dc/dcmitype/StillImage" />
        <dc:title></dc:title>
      </cc:Work>
    </rdf:RDF>
  </metadata>
  <defs
     id="defs13" />
  <sodipodi:namedview
     pagecolor="#ffffff"
     bordercolor="#666666"
     borderopacity="1"
     objecttolerance="10"
     gridtolerance="10"
     guidetolerance="10"
     inkscape:pageopacity="0"
     inkscape:pageshadow="2"
     inkscape:window-width="2880"
     inkscape:window-height="1526"
     id="namedview11"
     showgrid="false"
     inkscape:zoom="0.19360131"
     inkscape:cx="1420.9008"
     inkscape:cy="1167.9143"
     inkscape:window-x="2869"
     inkscape:window-y="-11"
     inkscape:window-maximized="1"
     inkscape:current-layer="ps_x5F_cc_x5F_app_x5F_RGB.svg" />
  <style
     id="style2">.st0{fill:#2e001e}.st1{fill:#ff2bc2}</style>
  <path
     class="st0"
     d="M10 10h220v214H10z"
     id="path4"
     style="fill:#345770;fill-opacity:1" />
  <path
     class="st1"
     d="M0 0v234h240V0H0zm10 10h220v214H10V10z"
     id="path6"
     style="fill:#ffffff;fill-opacity:1" />
  <path
     class="st1"
     d="M174.3 98.3c-1.5-.7-3.4-1-5.8-1-12.6 0-21 9.7-21 25.8 0 18.4 8.6 25.8 19.8 25.8 2.4 0 5-.3 6.9-1.1V98.3h.1zm-44.8 25.6c0-23.3 15-41.5 39.6-41.5 2.1 0 3.2 0 5.2.2v-26c0-.6.5-1 1-1h16.1c.8 0 1 .3 1 .8v91.4c0 2.7 0 6.1.5 9.8 0 .7 0 .8-.6 1.1-8.4 4-17.2 5.8-25.6 5.8-21.7 0-37.2-13.4-37.2-40.6zm-34.1-16.2l28 54.3c.5.8.2 1.6-.6 1.6h-17.4c-1.1 0-1.6-.3-2.1-1.3-6.4-13.2-12.9-26.9-19.6-41.1h-.2c-6 13.4-12.6 28-19 41.2-.5.8-1 1.1-1.8 1.1H46.1c-1 0-1.1-.8-.6-1.4l27.4-52.7L46.4 57c-.6-.8 0-1.5.7-1.5h17.2c1 0 1.5.2 1.8 1.1C72.4 69.9 78.8 83 84.8 96.4h.2c5.8-13.2 12.2-26.5 18.3-39.6.5-.8.8-1.3 1.8-1.3h16.1c.8 0 1.1.6.6 1.5l-26.4 50.7z"
     id="path8"
     style="fill:#ffffff;fill-opacity:1" />
</svg>
