<?xml version="1.0" encoding="UTF-8" standalone="no"?>
<svg
   xmlns:dc="http://purl.org/dc/elements/1.1/"
   xmlns:cc="http://creativecommons.org/ns#"
   xmlns:rdf="http://www.w3.org/1999/02/22-rdf-syntax-ns#"
   xmlns:svg="http://www.w3.org/2000/svg"
   xmlns="http://www.w3.org/2000/svg"
   xmlns:xlink="http://www.w3.org/1999/xlink"
   xmlns:sodipodi="http://sodipodi.sourceforge.net/DTD/sodipodi-0.dtd"
   xmlns:inkscape="http://www.inkscape.org/namespaces/inkscape"
   id="bf987f75-b15a-4b7f-a137-75b4492c4a21"
   data-name="Layer 1"
   width="1167.52"
   height="756.03"
   viewBox="0 0 1167.52 756.03"
   version="1.1"
   sodipodi:docname="about-hero.svg"
   inkscape:version="0.92.4 (5da689c313, 2019-01-14)">
  <metadata
     id="metadata160">
    <rdf:RDF>
      <cc:Work
         rdf:about="">
        <dc:format>image/svg+xml</dc:format>
        <dc:type
           rdf:resource="http://purl.org/dc/dcmitype/StillImage" />
        <dc:title>about me</dc:title>
      </cc:Work>
    </rdf:RDF>
  </metadata>
  <sodipodi:namedview
     pagecolor="#ffffff"
     bordercolor="#666666"
     borderopacity="1"
     objecttolerance="10"
     gridtolerance="10"
     guidetolerance="10"
     inkscape:pageopacity="0"
     inkscape:pageshadow="2"
     inkscape:window-width="2880"
     inkscape:window-height="1526"
     id="namedview158"
     showgrid="false"
     inkscape:zoom="1.2486277"
     inkscape:cx="338.76829"
     inkscape:cy="299.41983"
     inkscape:window-x="2869"
     inkscape:window-y="-11"
     inkscape:window-maximized="1"
     inkscape:current-layer="bf987f75-b15a-4b7f-a137-75b4492c4a21" />
  <defs
     id="defs11">
    <linearGradient
       id="b752362c-f89d-48d5-9dd1-266417fc8d3c"
       x1="588.17"
       y1="804.7"
       x2="588.17"
       y2="185.7"
       gradientUnits="userSpaceOnUse">
      <stop
         offset="0"
         stop-color="gray"
         stop-opacity="0.25"
         id="stop2" />
      <stop
         offset="0.54"
         stop-color="gray"
         stop-opacity="0.12"
         id="stop4" />
      <stop
         offset="1"
         stop-color="gray"
         stop-opacity="0.1"
         id="stop6" />
    </linearGradient>
    <linearGradient
       id="a11e32f9-0bc0-4cef-b66b-30dd4b707f0c"
       x1="567.7"
       y1="1179.83"
       x2="567.7"
       y2="1173.83"
       gradientTransform="translate(74.47 -1004.13)"
       xlink:href="#b752362c-f89d-48d5-9dd1-266417fc8d3c" />
    <linearGradient
       id="ada07a9a-e50a-4215-9506-0eaaef22308f"
       x1="588.52"
       y1="693.03"
       x2="588.52"
       y2="483.16"
       xlink:href="#b752362c-f89d-48d5-9dd1-266417fc8d3c" />
    <linearGradient
       inkscape:collect="always"
       xlink:href="#b752362c-f89d-48d5-9dd1-266417fc8d3c"
       id="linearGradient1864"
       gradientUnits="userSpaceOnUse"
       x1="588.17"
       y1="804.7"
       x2="588.17"
       y2="185.7"
       gradientTransform="translate(-16.098423,-71.99)" />
  </defs>
  <title
     id="title13">about me</title>
  <ellipse
     cx="560.76"
     cy="725.03"
     rx="541"
     ry="31"
     fill="#6c63ff"
     opacity="0.1"
     id="ellipse15"
     style="fill:#b8daf2;fill-opacity:1" />
  <path
     d="M 1056.4416,113.71 H 87.701577 a 8.64,8.64 0 0 0 -8.63,8.66 v 592.88 a 17.43,17.43 0 0 0 17.4,17.46 H 1047.6716 a 17.43,17.43 0 0 0 17.4,-17.46 V 122.37 a 8.65,8.65 0 0 0 -8.63,-8.66 z"
     id="path65"
     style="fill:url(#linearGradient1864)"
     inkscape:connector-curvature="0" />
  <path
     d="M1077.25,222.51V783.75A17.26,17.26,0,0,1,1060,801H116.51a17.26,17.26,0,0,1-17.26-17.26V222.51Z"
     id="path67"
     fill="#fff"
     transform="translate(-16.24 -71.99)" />
  <path
     d="m 1061.2224,124.23502 v 24.94 H 83.222365 v -24.94 a 8.56,8.56 0 0 1 8.559999,-8.56 H 1052.6624 a 8.56,8.56 0 0 1 8.56,8.56 z"
     id="path69"
     inkscape:connector-curvature="0"
     style="fill:#ededf4" />
  <rect
     x="640.17"
     y="169.7"
     width="4"
     height="6"
     transform="translate(798.63 -541.45) rotate(90)"
     fill="url(#a11e32f9-0bc0-4cef-b66b-30dd4b707f0c)"
     id="rect77" />
  <rect
     x="307.93"
     y="199.71"
     width="94"
     height="10"
     fill="#ededf4"
     id="rect79" />
  <rect
     x="307.93"
     y="228.71"
     width="528"
     height="10"
     fill="#ededf4"
     id="rect81" />
  <rect
     x="307.93"
     y="257.71"
     width="528"
     height="10"
     fill="#ededf4"
     id="rect83" />
  <rect
     x="307.93"
     y="286.71"
     width="528"
     height="10"
     fill="#ededf4"
     id="rect85" />
  <rect
     x="307.93"
     y="315.71"
     width="528"
     height="10"
     fill="#ededf4"
     id="rect87" />
  <rect
     x="396.94702"
     y="375.03442"
     width="366.04398"
     height="280.03079"
     id="rect89"
     style="fill:#f2f2f2;fill-opacity:0.94117647" />
  <path
     d="m 645.2,521.09 c -0.42,0 -0.84,0.06 -1.27,0.07 0.14191,-0.58197 0.18918,-1.183 0.14,-1.78 -0.12294,-2.52204 -0.80615,-4.98502 -2,-7.21 -0.7353,-1.31126 -1.56411,-2.56785 -2.48,-3.76 -2.72,-3.76 -5.24,-7.6 -8.23,-11.15 -1.29659,-1.37954 -2.36651,-2.95574 -3.17,-4.67 -0.30186,-0.92543 -0.66259,-1.83061 -1.08,-2.71 -1.17879,-1.8323 -3.28088,-2.85442 -5.45,-2.65 -2.13941,0.25202 -4.10779,1.29327 -5.52,2.92 -0.84,0.9 -1.53,2.29 -0.83,3.31 0.7,1.02 2.22,1.15 2.31,2.27 0,0.6 0,1.58 -0.61,1.77 -1.08295,0.28633 -2.11514,0.73833 -3.06,1.34 -0.94755,0.62782 -1.54407,1.66525 -1.61,2.8 1.73,0.26 3.18,-1.19 4.75,-2 1.99305,-0.84978 4.23012,-0.93171 6.28,-0.23 0.78777,0.20967 1.52334,0.58086 2.16,1.09 0.56096,0.5506 1.03323,1.18479 1.4,1.88 1.92611,2.78475 3.11637,6.01153 3.46,9.38 l 0.88,5.62 c -1.30171,0.10378 -2.5969,0.27737 -3.88,0.52 -3.45372,0.50926 -6.97655,0.27054 -10.33,-0.7 -3.5,-1 -7,-2.82 -10.61,-2 -1.69,0.37 -3.23,1.31 -4.94,1.58 -1.33637,0.12885 -2.68447,0.0581 -4,-0.21 l -2.75,-0.44 c -0.09,-0.23 -0.16,-0.47 -0.23,-0.71 -0.56863,-2.00577 -0.83159,-4.08582 -0.78,-6.17 7.76116,-0.4164 12.65434,-8.5318 9.4,-15.59 1.48282,-0.83129 -1.3441,1.35184 -0.50445,-0.12626 l 0.25104,-0.98094 1.01039,-1.20022 c -0.66648,-0.40691 -1.58141,1.73287 -1.01039,1.20022 -5.13586,12.32923 1.43824,-0.26355 0.78242,-0.23665 0.21,-0.39 0.62083,-3.57296 0.21083,-3.70296 -0.42752,-0.0869 -0.56473,-1.66551 -0.99968,-1.63171 -0.63808,-0.0491 -1.41528,-1.54553 -2.01016,-1.78148 -4.27,-1.47 -8.9,-2.76 -13.25,-1.53 -1.91724,0.59841 -3.70972,1.54039 -5.29,2.78 -1.4724,2.65865 -2.73432,5.27684 -1.11813,8.56945 0.65994,1.63824 1.73359,3.74614 2.01066,5.49044 0.0613,1.62852 -0.16147,1.25622 -0.5873,2.82928 0.95218,0.2899 0.64477,2.75083 0.64477,2.75083 -0.5556,2.14754 -1.53852,4.16099 -2.89,5.92 -0.61927,0.77821 -1.28728,1.51636 -2,2.21 h -0.12 c -1.9827,0.37097 -3.98658,0.61811 -6,0.74 -2.12,0 -4.2,-0.8 -6.31,-0.65 -1.25013,0.1409 -2.4809,0.41925 -3.67,0.83 -5.48891,1.60902 -11.19119,2.37112 -16.91,2.26 l -0.69,0.07 0.64,-4.08 c 0.34363,-3.36847 1.53389,-6.59525 3.46,-9.38 0.36677,-0.69521 0.83904,-1.3294 1.4,-1.88 0.64024,-0.50938 1.37912,-0.88052 2.17,-1.09 2.04643,-0.70201 4.2805,-0.62006 6.27,0.23 1.57,0.77 3,2.22 4.76,2 -0.0728,-1.13519 -0.67215,-2.17107 -1.62,-2.8 -0.94486,-0.60167 -1.97705,-1.05367 -3.06,-1.34 -0.58,-0.19 -0.66,-1.17 -0.61,-1.77 0.09,-1.12 1.68,-1.36 2.31,-2.28 0.63,-0.92 0,-2.4 -0.83,-3.31 -1.41445,-1.62225 -3.38232,-2.65965 -5.52,-2.91 -2.16653,-0.20519 -4.26607,0.81756 -5.44,2.65 -0.42495,0.87731 -0.78914,1.78278 -1.09,2.71 -0.80349,1.71426 -1.87341,3.29046 -3.17,4.67 -3,3.55 -5.51,7.39 -8.23,11.15 -0.91018,1.19272 -1.73873,2.44557 -2.48,3.75 -1.18785,2.23096 -1.87064,4.69582 -2,7.22 -0.0492,0.60031 -0.002,1.20464 0.14,1.79 -0.0668,0.14099 -0.10424,0.29409 -0.11,0.45 0.0626,0.55212 0.34344,1.05625 0.78,1.4 1.53,1.54 3.14,3.13 5.2,3.79 1.28161,0.30332 2.58076,0.52708 3.89,0.67 3.16,0.57 6.07,2.4 9.28,2.39 2.21,0 4.39,-0.88 6.57,-0.57 3,0.41 5.16,2.85 7,5.22 1.56274,1.84985 2.73616,3.99601 3.45,6.31 0.71,2.79 0.27,5.93 1.76,8.39 0.37592,0.50233 0.66648,1.06318 0.86,1.66 0.0309,0.94376 -0.17899,1.87984 -0.61,2.72 -1.26,3.87 1.5,8 1.21,12 -0.14,1.95 -1,3.79 -1.09,5.74 -0.15,2.51 0.87,5.32 -0.53,7.41 0.85,-0.44 1.71,-0.83 2.59,-1.18 -4.2,12.31 -8,25 -7.71,37.94 0.22,8.39 2,17.63 -2.82,24.52 -0.6849,0.82143 -1.22894,1.75069 -1.61,2.75 -0.38,1.35 0,2.78 0.25,4.16 0.89,6 -2.35,11.91 -2.57,18 -0.0252,1.8765 0.0951,3.75212 0.36,5.61 l 1.18,10.14 c -1.18911,0.25892 -2.29545,0.80866 -3.22,1.6 -1.24,1 -2.33,2.64 -1.75,4.14 0.47,1.21 1.85,1.79 3.12,2.09 1.3024,0.14611 2.5472,0.61721 3.62,1.37 0.34314,0.37982 0.70703,0.74037 1.09,1.08 0.73931,0.40064 1.58609,0.5581 2.42,0.45 1.53,-0.06 3,-0.19 4.56,-0.4 0.32383,-0.0134 0.6381,-0.1136 0.91,-0.29 0.36924,-0.40848 0.55373,-0.95111 0.51,-1.5 0.11202,-1.52225 0.0483,-3.05234 -0.19,-4.56 -0.06,-0.29 -0.14,-0.57 -0.22,-0.86 0.52518,-1.28533 0.89772,-2.62784 1.11,-4 0.31,-2 0.36,-4.09 0.49,-6.14 0.3,-5.22 1,-10.4 1.8,-15.58 l 1,-6.66 c 0.31,-2.19 0.63,-4.38 1,-6.57 1.85394,-11.86167 4.73819,-23.53919 8.62,-34.9 0.85,-2.43 2.3,-5.28 4.87,-5.35 l 1.53,3 c 2,3.76 3.22,7.93 4.74,11.88 2,5.19 1.32,11.25 4,16.13 0.44,0.81 1,1.58 1.33,2.43 0.4741,1.30837 0.75047,2.68012 0.82,4.07 l 1.77,18 c 0.8,8.09 1.66,16.4 5.29,23.67 0.22789,0.4687 0.49554,0.91701 0.8,1.34 -0.11178,1.21016 -0.12849,2.42722 -0.05,3.64 -0.23975,0.92043 0.46916,1.81406 1.42,1.79 1.51,0.2 3,0.33 4.55,0.39 0.83391,0.1081 1.68069,-0.0494 2.42,-0.45 0.39104,-0.33431 0.75857,-0.69516 1.1,-1.08 1.06909,-0.75276 2.31066,-1.22394 3.61,-1.37 1.27,-0.29 2.65,-0.87 3.12,-2.09 0.59,-1.5 -0.51,-3.13 -1.75,-4.14 -1.0051,-0.87814 -2.2403,-1.45064 -3.56,-1.65 -0.54341,0.0314 -1.08854,-0.0124 -1.62,-0.13 0.12366,-0.659 0.16397,-1.33094 0.12,-2 -0.12804,-0.78652 -0.16161,-1.58552 -0.1,-2.38 0.20424,-0.80252 0.47863,-1.58554 0.82,-2.34 1.15,-3.54 -1.3,-7.14 -2.16,-10.76 -1.15,-4.82 0.56,-9.87 0.25,-14.82 -0.48,-7.77 -5.9,-15.06 -4.46,-22.71 1.15,-6.12 0.17,-12.41 -0.92,-18.54 l -4,-22.81 c -0.28145,-1.85147 -0.76777,-3.66594 -1.45,-5.41 0.74238,-0.12854 1.4719,-0.32264 2.18,-0.58 1,-2.44 0.83,-5.13 0.53,-7.75 -0.3,-2.62 -1,-5.18 -1.35,-7.78 -0.30311,-2.09062 -0.47678,-4.19797 -0.52,-6.31 -0.10905,-2.08353 0.0387,-4.17257 0.44,-6.22 0.45982,-1.79754 1.08585,-3.54842 1.87,-5.23 1.93521,-4.85533 4.27686,-9.53863 7,-14 4.11,-0.32 8.09,-0.67 12.19,-1 0.98282,-0.0449 1.95985,-0.1754 2.92,-0.39 1.22372,-0.42179 2.46877,-0.77895 3.73,-1.07 0.47042,-0.0245 0.93502,-0.11544 1.38,-0.27 0.9,-0.41 1.45,-1.56 2.44,-1.6 0.37169,0.0495 0.74831,0.0495 1.12,0 0.44,-0.14 0.66,-0.62 1,-1 0.62,-0.69 1.63,-0.83 2.44,-1.28 1.43326,-0.93069 1.99703,-2.75243 1.34,-4.33 z"
     transform="translate(-16.24,-71.99)"
     id="path91"
     inkscape:connector-curvature="0"
     style="fill:url(#ada07a9a-e50a-4215-9506-0eaaef22308f)"
     sodipodi:nodetypes="ccccccccccsccccccccccccccccccccccccccccccccccccccccccccccccccscccccccccccccccccccccccccccccccccccccccccccccccccccccccccccccccccccccccccccccscccccccccccccc" />
  <circle
     cx="576.94"
     cy="427.16"
     r="11"
     fill="#a1616a"
     id="circle93"
     style="fill:#ffd5d5;fill-opacity:1" />
  <path
     d="M580.48,512.84a27.41,27.41,0,0,1-3.75,3.79,29.79,29.79,0,0,0,21.5,3.54c-.27-.75-1.25-.86-1.94-1.24a4.19,4.19,0,0,1-1.7-2.68,20.94,20.94,0,0,1-.64-8.11,5,5,0,0,0,0-2,4.29,4.29,0,0,0-2.07-2.28,20.41,20.41,0,0,0-5-2.25c-1.82-.54-2.86-.79-2.93,1.33A16.85,16.85,0,0,1,580.48,512.84Z"
     transform="translate(-16.24 -71.99)"
     fill="#a1616a"
     id="path95"
     style="fill:#ffd5d5;fill-opacity:1" />
  <path
     d="M631.52,519.76l-1.12-7.1a26.39,26.39,0,0,0-.89-4.22,27.21,27.21,0,0,0-2.56-5.12,7.56,7.56,0,0,0-1.4-1.87,5.88,5.88,0,0,0-2.16-1.09,8.71,8.71,0,0,0-6.26.24c-1.57.76-3,2.2-4.75,1.95a3.58,3.58,0,0,1,1.62-2.79,10.57,10.57,0,0,1,3-1.34c.57-.18.66-1.16.61-1.76-.09-1.11-1.68-1.35-2.31-2.26s0-2.39.82-3.3a8.61,8.61,0,0,1,5.51-2.89,5.78,5.78,0,0,1,5.44,2.63,21.16,21.16,0,0,1,1.09,2.7,18,18,0,0,0,3.16,4.65c3,3.53,5.51,7.35,8.22,11.09a34.61,34.61,0,0,1,2.48,3.74,16.91,16.91,0,0,1,2,7.18,4.47,4.47,0,0,1-.33,2.27,3.52,3.52,0,0,1-3,1.72,10.63,10.63,0,0,1-3.59-.72L632.74,522a2.84,2.84,0,0,1-1.4-.77A1.1,1.1,0,0,1,631.52,519.76Z"
     transform="translate(-16.24 -71.99)"
     fill="#a1616a"
     id="path97"
     style="fill:#ffd5d5;fill-opacity:1" />
  <path
     d="M544.37,521.33l1.11-7.1a27.55,27.55,0,0,1,.9-4.22,26.62,26.62,0,0,1,2.56-5.12,7.07,7.07,0,0,1,1.39-1.86,5.66,5.66,0,0,1,2.16-1.09,8.74,8.74,0,0,1,6.27.23c1.57.76,3,2.2,4.75,1.95a3.6,3.6,0,0,0-1.62-2.79,10.69,10.69,0,0,0-3-1.34c-.57-.18-.66-1.16-.61-1.76.09-1.11,1.67-1.35,2.31-2.26s0-2.39-.83-3.29a8.6,8.6,0,0,0-5.51-2.9,5.79,5.79,0,0,0-5.44,2.63,21.11,21.11,0,0,0-1.08,2.7,18.21,18.21,0,0,1-3.16,4.65c-3,3.53-5.51,7.35-8.23,11.09a34,34,0,0,0-2.47,3.74,17.07,17.07,0,0,0-2,7.18,4.53,4.53,0,0,0,.34,2.28,3.53,3.53,0,0,0,3.05,1.71,10.34,10.34,0,0,0,3.58-.72l4.37-1.43a2.77,2.77,0,0,0,1.39-.77A1.1,1.1,0,0,0,544.37,521.33Z"
     transform="translate(-16.24 -71.99)"
     fill="#a1616a"
     id="path99"
     style="fill:#ffd5d5;fill-opacity:1" />
  <path
     d="M623.57,683.41c1.24,1,2.33,2.63,1.75,4.12-.48,1.21-1.85,1.78-3.12,2.08a7.88,7.88,0,0,0-3.61,1.36A11,11,0,0,1,617.5,692a3.93,3.93,0,0,1-2.42.45c-1.52-.06-3-.19-4.55-.39a1.81,1.81,0,0,1-.91-.29,1.93,1.93,0,0,1-.5-1.49,19.13,19.13,0,0,1,.18-4.54,6.5,6.5,0,0,1,2.19-3.87c1.16-.9,4.68-3.57,6-1.86.35.46.21,1.09.7,1.47s1.26.17,1.82.24A7,7,0,0,1,623.57,683.41Z"
     transform="translate(-16.24 -71.99)"
     fill="#3f3d56"
     id="path101" />
  <path
     d="M556,683.93c-1.24,1-2.33,2.63-1.75,4.12.47,1.21,1.84,1.79,3.11,2.08a7.84,7.84,0,0,1,3.61,1.36,11.2,11.2,0,0,0,1.1,1.08,4,4,0,0,0,2.41.45c1.52-.06,3-.19,4.55-.4a1.78,1.78,0,0,0,.91-.29,1.93,1.93,0,0,0,.51-1.49,19.59,19.59,0,0,0-.19-4.53,6.45,6.45,0,0,0-2.19-3.88c-1.15-.9-4.67-3.57-6-1.86-.35.46-.21,1.1-.71,1.47s-1.25.17-1.82.24A7.06,7.06,0,0,0,556,683.93Z"
     transform="translate(-16.24 -71.99)"
     fill="#3f3d56"
     id="path103" />
  <path
     d="M573,577.23c-4.51,13-8.89,26.45-8.55,40.24.22,8.35,2,17.55-2.81,24.4a9.54,9.54,0,0,0-1.61,2.74c-.38,1.34,0,2.76.24,4.14.9,6-2.33,11.86-2.56,17.92a36,36,0,0,0,.36,5.58l1.25,10.68c.42,3.66,5.14,5.16,8.78,5.67a13.61,13.61,0,0,0,3.09-7.19c.31-2,.36-4.07.48-6.1.31-5.2,1.06-10.36,1.8-15.51l1-6.63c.32-2.18.63-4.36,1-6.54A205.66,205.66,0,0,1,584.1,612c.85-2.43,2.3-5.26,4.86-5.33l1.53,2.94c2,3.73,3.21,7.89,4.73,11.82,2,5.17,1.31,11.19,4,16.06.44.8,1,1.57,1.32,2.41a13.9,13.9,0,0,1,.82,4l1.77,17.88c.8,8.05,1.65,16.32,5.28,23.55a5.47,5.47,0,0,0,1.67,2.2c1.48,1,3.55.49,5-.55a8.53,8.53,0,0,0,3.46-7.38,11.07,11.07,0,0,1-.1-2.37,15.76,15.76,0,0,1,.82-2.33c1.16-3.52-1.29-7.1-2.16-10.7-1.15-4.8.56-9.82.26-14.75-.48-7.74-5.89-15-4.46-22.61,1.15-6.09.17-12.35-.91-18.45l-4.05-22.7c-.64-3.58-1.6-7.62-4.79-9.37a11.9,11.9,0,0,0-5.83-1C589.05,575.32,581.15,576.47,573,577.23Z"
     transform="translate(-16.24 -71.99)"
     fill="#3f3d56"
     id="path105" />
  <path
     d="m 628.96,449.1 a 14.3,14.496156 0 0 1 -8.4,-1.76387 16.86,17.091272 0 0 0 -3.09,-1.64222 c -2,-0.65892 -4.2,-0.0811 -6.3,0.23316 a 24.6,24.937443 0 0 1 -10.31,-0.70961 c -3.5,-1.01371 -7,-2.84854 -10.6,-2.02743 -1.69,0.37507 -3.22,1.31783 -4.93,1.59153 a 13.12,13.29997 0 0 1 -4,-0.21288 l -11.4,-1.80441 a 31.18,31.607702 0 0 0 -7.82,-0.56768 50.62,51.314364 0 0 1 -6,0.76028 c -2.11,0 -4.19,-0.81097 -6.3,-0.66905 a 17.16,17.395387 0 0 0 -3.66,0.84139 56.33,57.102689 0 0 1 -16.87,2.28086 25.33,25.677456 0 0 0 -12.69,4.46036 2,2.0274344 0 0 0 -1,1.40906 2.05,2.0781202 0 0 0 0.79,1.39893 c 1.52,1.56113 3.13,3.1628 5.19,3.83185 a 31.43,31.861131 0 0 0 3.88,0.66906 c 3.15,0.58795 6.06,2.42278 9.26,2.42278 2.21,0 4.38,-0.89207 6.56,-0.57782 3,0.41563 5.15,2.86882 7,5.26119 a 18.17,18.419241 0 0 1 3.45,6.36615 c 0.7,2.81813 0.26,5.98093 1.75,8.46454 a 5.78,5.8592854 0 0 1 0.86,1.67263 5.5,5.5754445 0 0 1 -0.61,2.74717 c -1.26,3.90281 1.5,8.02864 1.21,12.16461 -0.14,1.95647 -1,3.82171 -1.09,5.77819 -0.14,2.54443 0.87,5.3727 -0.53,7.48123 a 35.85,36.341761 0 0 1 17.45,-3.86226 21.88,22.180132 0 0 1 3,0.28384 42,42.576122 0 0 1 5.68,1.60167 c 4.18,1.34825 8.78,2.31128 12.9,0.77043 1,-2.46334 0.83,-5.1801 0.52,-7.81576 -0.31,-2.63567 -0.95,-5.23078 -1.34,-7.85631 a 50.81,51.50697 0 0 1 -0.52,-6.36615 25.19,25.535536 0 0 1 0.44,-6.2749 29.34,29.742462 0 0 1 1.87,-5.27133 91.61,92.866632 0 0 1 7,-14.19204 c 4.1,-0.33453 8.07,-0.68933 12.17,-1.01372 a 18.85,19.108569 0 0 0 2.91,-0.39535 37.45,37.963709 0 0 1 3.72,-1.07454 4.91,4.9773514 0 0 0 1.38,-0.28384 c 0.9,-0.41563 1.46,-1.57126 2.44,-1.60168 a 4.69,4.7543336 0 0 0 1.12,0 c 0.44,-0.13178 0.65,-0.6285 1,-1.01371 0.62,-0.69947 1.63,-0.84139 2.44,-1.28742 A 3.52,3.5682845 0 0 0 628.96,449.1 Z"
     id="path107"
     style="fill:#b8daf2;fill-opacity:1;stroke-width:1.00683522"
     inkscape:connector-curvature="0" />
  <path
     d="M189.26,308.3a27.69,27.69,0,0,0-3.91-4.18,3.36,3.36,0,0,1,.37-5.35c.48-.31.95-.64,1.42-1,5.46-4.15,8.22-9.72,6.15-12.45s-8.18-1.57-13.64,2.58a21,21,0,0,0-1.81,1.51,3.35,3.35,0,0,1-5.24-1,28.28,28.28,0,0,0-2.69-4.28c-4.86-6.4-11.38-9.63-14.57-7.21s-1.85,9.58,3,16a27.58,27.58,0,0,0,3.15,3.5,3.38,3.38,0,0,1-.74,5.39l0,0c-6,3.43-9.39,8.6-7.69,11.57s7.92,2.6,13.87-.82a26.13,26.13,0,0,0,2.66-1.77,3.38,3.38,0,0,1,5.1,1.24,26.26,26.26,0,0,0,3,5c4.85,6.4,11.38,9.63,14.57,7.21S194.11,314.71,189.26,308.3Z"
     transform="translate(-16.24 -71.99)"
     fill="#6c63ff"
     opacity="0.1"
     id="path113"
     style="fill:#f2f2f2;fill-opacity:1;opacity:1" />
  <path
     d="M897.58,481.11a27.22,27.22,0,0,0,2.87-4.95,3.34,3.34,0,0,1,5.21-1.2c.44.36.9.71,1.37,1.06,5.56,4,11.7,5,13.7,2.25s-.88-8.28-6.44-12.3q-1-.71-2-1.29a3.35,3.35,0,0,1-.55-5.31,27.17,27.17,0,0,0,3.3-3.82c4.71-6.51,5.89-13.69,2.65-16s-9.7,1-14.41,7.55a28.2,28.2,0,0,0-2.43,4,3.38,3.38,0,0,1-5.37.87l0,0c-5-4.69-11-6.47-13.31-4s-.17,8.33,4.84,13a24.14,24.14,0,0,0,2.47,2,3.38,3.38,0,0,1,.29,5.24,26.85,26.85,0,0,0-3.93,4.39c-4.71,6.51-5.89,13.69-2.64,16S892.87,487.63,897.58,481.11Z"
     transform="translate(-16.24 -71.99)"
     fill="#6c63ff"
     opacity="0.1"
     id="path115"
     style="fill:#f2f2f2;fill-opacity:1;opacity:0.51" />
  <ellipse
     cx="886.46"
     cy="740.19"
     rx="33.8"
     ry="6.5"
     fill="#6c63ff"
     id="ellipse117"
     style="fill:#345770;fill-opacity:1" />
  <ellipse
     cx="885.9"
     cy="737.43"
     rx="3.94"
     ry="5.15"
     fill="#3f3d56"
     id="ellipse119" />
  <ellipse
     cx="885.9"
     cy="731.13"
     rx="3.94"
     ry="5.15"
     fill="#3f3d56"
     id="ellipse121" />
  <ellipse
     cx="885.9"
     cy="724.84"
     rx="3.94"
     ry="5.15"
     fill="#3f3d56"
     id="ellipse123" />
  <ellipse
     cx="885.9"
     cy="718.54"
     rx="3.94"
     ry="5.15"
     fill="#3f3d56"
     id="ellipse125" />
  <ellipse
     cx="885.9"
     cy="712.24"
     rx="3.94"
     ry="5.15"
     fill="#3f3d56"
     id="ellipse127" />
  <ellipse
     cx="885.9"
     cy="705.95"
     rx="3.94"
     ry="5.15"
     fill="#3f3d56"
     id="ellipse129" />
  <ellipse
     cx="885.9"
     cy="699.65"
     rx="3.94"
     ry="5.15"
     fill="#3f3d56"
     id="ellipse131" />
  <path
     d="M916.87,728.55a19.94,19.94,0,0,0,1.46-2.16L908,724.69l11.18.09a18.84,18.84,0,0,0,.36-14.94l-15,7.78,13.84-10.17a18.85,18.85,0,1,0-31.14,21.1,19.29,19.29,0,0,0-2.15,3.44l13.43,7-14.32-4.8a18.89,18.89,0,0,0,3,17.7,18.85,18.85,0,1,0,29.64,0,18.87,18.87,0,0,0,0-23.31Z"
     transform="translate(-16.24 -71.99)"
     fill="#6c63ff"
     id="path133"
     style="fill:#345770;fill-opacity:1" />
  <path
     d="M883.2,740.2a18.83,18.83,0,0,0,4,11.66,18.85,18.85,0,1,0,29.64,0C919.39,748.65,883.2,738.09,883.2,740.2Z"
     transform="translate(-16.24 -71.99)"
     opacity="0.1"
     id="path135" />
  <ellipse
     cx="270.46"
     cy="741.74"
     rx="15.3"
     ry="2.94"
     fill="#6c63ff"
     id="ellipse137"
     style="fill:#556570;fill-opacity:1" />
  <ellipse
     cx="270.21"
     cy="740.49"
     rx="1.78"
     ry="2.33"
     fill="#3f3d56"
     id="ellipse139" />
  <ellipse
     cx="270.21"
     cy="737.64"
     rx="1.78"
     ry="2.33"
     fill="#3f3d56"
     id="ellipse141" />
  <ellipse
     cx="270.21"
     cy="734.79"
     rx="1.78"
     ry="2.33"
     fill="#3f3d56"
     id="ellipse143" />
  <ellipse
     cx="270.21"
     cy="731.94"
     rx="1.78"
     ry="2.33"
     fill="#3f3d56"
     id="ellipse145" />
  <ellipse
     cx="270.21"
     cy="729.09"
     rx="1.78"
     ry="2.33"
     fill="#3f3d56"
     id="ellipse147" />
  <ellipse
     cx="270.21"
     cy="726.24"
     rx="1.78"
     ry="2.33"
     fill="#3f3d56"
     id="ellipse149" />
  <ellipse
     cx="270.21"
     cy="723.39"
     rx="1.78"
     ry="2.33"
     fill="#3f3d56"
     id="ellipse151" />
  <path
     d="M293.11,775.87a8.08,8.08,0,0,0,.67-1l-4.68-.77,5.06,0a8.54,8.54,0,0,0,.78-3.57,8.43,8.43,0,0,0-.62-3.19l-6.79,3.52,6.26-4.6a8.53,8.53,0,1,0-14.09,9.55,8.57,8.57,0,0,0-1,1.55l6.07,3.16-6.48-2.18a8.54,8.54,0,0,0,1.38,8,8.54,8.54,0,1,0,13.41,0,8.52,8.52,0,0,0,0-10.55Z"
     transform="translate(-16.24 -71.99)"
     fill="#6c63ff"
     id="path153"
     style="fill:#556570;fill-opacity:1" />
  <path
     d="M277.87,781.14a8.53,8.53,0,0,0,1.83,5.28,8.54,8.54,0,1,0,13.41,0C294.26,785,277.87,780.18,277.87,781.14Z"
     transform="translate(-16.24 -71.99)"
     opacity="0.1"
     id="path155" />
  <g
     id="g1380"
     transform="matrix(1.23783,0,0,1.1695356,-1540.9038,-152.22411)">
    <path
       style="fill:#decd87;fill-opacity:1;stroke-width:0.15762129"
       id="path42-8"
       d="m 1716.8414,491.63908 c 0.629,0.2859 1.2529,0.62429 1.937,0.70726 0.684,0.083 1.4629,-0.16042 1.7866,-0.78025 0.1748,-0.33477 0.1948,-0.72854 0.2029,-1.10771 0.025,-1.14978 -0.057,-2.39275 -0.7716,-3.28256 -0.4549,-0.56629 -1.119,-0.92327 -1.5899,-1.47582 -0.3374,-0.39586 -0.5619,-0.87569 -0.8036,-1.33855 -0.9159,-1.75323 -2.2719,-3.43822 -4.1564,-3.94366 -0.7868,-0.21106 -1.6123,-0.20075 -2.426,-0.18905 l -4.7456,0.0682 c -0.768,0.011 -1.5478,0.0239 -2.2831,0.25045 -1.5274,0.47076 -2.6396,1.78007 -3.6581,3.03221 -0.7621,0.93678 -1.5262,1.88325 -2.0981,2.95145 a 10.160215,10.356357 0 0 0 -1.2044,5.07431 4.6575133,4.7474261 0 0 0 0.1707,1.3427 7.3098872,7.4510041 0 0 0 0.5177,1.15917 c 0.8899,1.78179 1.4184,4.00738 0.4161,5.72611 1.7411,-0.72495 3.4637,-1.67544 4.6122,-3.19348 0.5137,-0.67911 0.9168,-1.47411 1.6014,-1.97245 0.6847,-0.49834 1.8004,-0.54157 2.2397,0.18981 a 2.0072844,2.0460348 0 0 1 0.2265,0.95839 c 0.032,0.54899 0.031,1.11912 0.2596,1.61741 0.2283,0.49829 0.7723,0.90032 1.2916,0.75122 0.8944,-0.25679 0.8088,-1.65597 1.4976,-2.29156 0.5232,-0.48269 1.3303,-0.39041 2.0024,-0.60952 0.7831,-0.2553 1.3706,-0.94679 1.7054,-1.7122 0.2545,-0.5818 0.2509,-2.10425 0.7323,-2.41932 0.604,-0.3951 1.9772,0.23304 2.5371,0.48739 z"
       inkscape:connector-curvature="0" />
  </g>
  <path
     d="M566.17,692H554.46a1.53,1.53,0,0,0,0,3h2.34v19.87H516.73a1.11,1.11,0,0,0-.89-.54h-11.7a1.53,1.53,0,0,0,0,3h2.34v20.41H467.79a1.24,1.24,0,0,0-1.1-1.08H455a1.52,1.52,0,0,0,0,3h1.17v21H416.84a1,1,0,0,0-.48-.13h-11.7a1.53,1.53,0,0,0,0,3h1.17v20H367a1.12,1.12,0,0,0-1-.68h-11.7a1.53,1.53,0,0,0,0,3h1.17V808H620V692Z"
     transform="translate(-16.24 -71.99)"
     fill="#3f3d56"
     id="path111" />
  <g
     id="g1823"
     transform="translate(-1229.1518,-480.65224)">
    <circle
       style="fill:#b8daf2;fill-opacity:1"
       id="circle54-8"
       r="5.61624"
       cy="615.34894"
       cx="1330.8735" />
    <circle
       style="fill:#b8daf2;fill-opacity:1"
       id="circle56-4"
       r="5.61624"
       cy="615.34894"
       cx="1350.1289" />
    <circle
       style="fill:#b8daf2;fill-opacity:1"
       id="circle58-7"
       r="5.61624"
       cy="615.34894"
       cx="1369.3844" />
    <path
       id="path64-6"
       d="m 1332.4783,619.36054 a 6.41848,6.41848 0 1 1 6.4185,-6.41848 6.42592,6.42592 0 0 1 -6.4185,6.41848 z m 0,-11.23234 a 4.81386,4.81386 0 1 0 4.8139,4.81386 4.81945,4.81945 0 0 0 -4.8139,-4.81386 z"
       inkscape:connector-curvature="0"
       style="fill:#3f3d56" />
    <path
       id="path66-5"
       d="m 1351.7338,619.36054 a 6.41848,6.41848 0 1 1 6.4185,-6.41848 6.42592,6.42592 0 0 1 -6.4185,6.41848 z m 0,-11.23234 a 4.81386,4.81386 0 1 0 4.8138,4.81386 4.81945,4.81945 0 0 0 -4.8138,-4.81386 z"
       inkscape:connector-curvature="0"
       style="fill:#3f3d56" />
    <path
       id="path68-6"
       d="m 1370.9892,619.36054 a 6.41848,6.41848 0 1 1 6.4185,-6.41849 6.42593,6.42593 0 0 1 -6.4185,6.41849 z m 0,-11.23234 a 4.81386,4.81386 0 1 0 4.8139,4.81386 4.81946,4.81946 0 0 0 -4.8139,-4.81386 z"
       inkscape:connector-curvature="0"
       style="fill:#3f3d56" />
  </g>
</svg>
