<?xml version="1.0" encoding="UTF-8" standalone="no"?>
<svg
   xmlns:dc="http://purl.org/dc/elements/1.1/"
   xmlns:cc="http://creativecommons.org/ns#"
   xmlns:rdf="http://www.w3.org/1999/02/22-rdf-syntax-ns#"
   xmlns:svg="http://www.w3.org/2000/svg"
   xmlns="http://www.w3.org/2000/svg"
   xmlns:xlink="http://www.w3.org/1999/xlink"
   xmlns:sodipodi="http://sodipodi.sourceforge.net/DTD/sodipodi-0.dtd"
   xmlns:inkscape="http://www.inkscape.org/namespaces/inkscape"
   id="bf987f75-b15a-4b7f-a137-75b4492c4a21"
   data-name="Layer 1"
   width="1167.52"
   height="756.03"
   viewBox="0 0 1167.52 756.03"
   version="1.1"
   sodipodi:docname="about-hero.svg"
   inkscape:version="0.92.4 (5da689c313, 2019-01-14)">
  <metadata
     id="metadata160">
    <rdf:RDF>
      <cc:Work
         rdf:about="">
        <dc:format>image/svg+xml</dc:format>
        <dc:type
           rdf:resource="http://purl.org/dc/dcmitype/StillImage" />
        <dc:title>about me</dc:title>
      </cc:Work>
    </rdf:RDF>
  </metadata>
  <sodipodi:namedview
     pagecolor="#ffffff"
     bordercolor="#666666"
     borderopacity="1"
     objecttolerance="10"
     gridtolerance="10"
     guidetolerance="10"
     inkscape:pageopacity="0"
     inkscape:pageshadow="2"
     inkscape:window-width="2880"
     inkscape:window-height="1526"
     id="namedview158"
     showgrid="false"
     inkscape:zoom="3.5316523"
     inkscape:cx="862.21845"
     inkscape:cy="347.3625"
     inkscape:window-x="2869"
     inkscape:window-y="-11"
     inkscape:window-maximized="1"
     inkscape:current-layer="bf987f75-b15a-4b7f-a137-75b4492c4a21" />
  <defs
     id="defs11">
    <linearGradient
       id="b752362c-f89d-48d5-9dd1-266417fc8d3c"
       x1="588.17"
       y1="804.7"
       x2="588.17"
       y2="185.7"
       gradientUnits="userSpaceOnUse">
      <stop
         offset="0"
         stop-color="gray"
         stop-opacity="0.25"
         id="stop2" />
      <stop
         offset="0.54"
         stop-color="gray"
         stop-opacity="0.12"
         id="stop4" />
      <stop
         offset="1"
         stop-color="gray"
         stop-opacity="0.1"
         id="stop6" />
    </linearGradient>
    <linearGradient
       id="a11e32f9-0bc0-4cef-b66b-30dd4b707f0c"
       x1="567.7"
       y1="1179.83"
       x2="567.7"
       y2="1173.83"
       gradientTransform="translate(74.47 -1004.13)"
       xlink:href="#b752362c-f89d-48d5-9dd1-266417fc8d3c" />
    <linearGradient
       id="ada07a9a-e50a-4215-9506-0eaaef22308f"
       x1="588.52"
       y1="693.03"
       x2="588.52"
       y2="483.16"
       xlink:href="#b752362c-f89d-48d5-9dd1-266417fc8d3c"
       gradientTransform="matrix(1.1691224,0,0,1.2646017,-7.1893252,-262.86367)" />
    <linearGradient
       inkscape:collect="always"
       xlink:href="#b752362c-f89d-48d5-9dd1-266417fc8d3c"
       id="linearGradient1864"
       gradientUnits="userSpaceOnUse"
       x1="588.17"
       y1="804.7"
       x2="588.17"
       y2="185.7"
       gradientTransform="matrix(1.1033826,0,0,1,-25.937345,-71.99)" />
  </defs>
  <title
     id="title13">about me</title>
  <ellipse
     cx="560.76"
     cy="725.03"
     rx="541"
     ry="31"
     fill="#6c63ff"
     opacity="0.1"
     id="ellipse15"
     style="fill:#b8daf2;fill-opacity:1" />
  <path
     d="M 1157.4847,113.71 H 88.593772 a 9.533226,8.64 0 0 0 -9.522192,8.66 v 592.88 a 19.231959,17.43 0 0 0 19.198858,17.46 H 1147.808 a 19.231959,17.43 0 0 0 19.1989,-17.46 V 122.37 a 9.5442598,8.65 0 0 0 -9.5222,-8.66 z"
     id="path65"
     style="fill:url(#linearGradient1864);stroke-width:1.05042028"
     inkscape:connector-curvature="0" />
  <path
     d="m 1161.4611,150.37842 v 561.24 a 19.005302,17.26 0 0 1 -18.9943,17.25 H 103.57264 a 19.005302,17.26 0 0 1 -19.005296,-17.26 v -561.23 z"
     id="path67"
     inkscape:connector-curvature="0"
     style="fill:#ffffff;stroke-width:1.04934192" />
  <path
     d="m 1165.637,124.23502 v 24.94 H 83.222365 v -24.94 a 9.4738949,8.56 0 0 1 9.473894,-8.56 H 1156.1631 a 9.4738949,8.56 0 0 1 9.4739,8.56 z"
     id="path69"
     inkscape:connector-curvature="0"
     style="fill:#ededf4;stroke-width:1.0520283" />
  <rect
     x="640.17"
     y="169.7"
     width="4"
     height="6"
     transform="translate(798.63 -541.45) rotate(90)"
     fill="url(#a11e32f9-0bc0-4cef-b66b-30dd4b707f0c)"
     id="rect77" />
  <rect
     x="307.93"
     y="199.71"
     width="94"
     height="10"
     fill="#ededf4"
     id="rect79" />
  <rect
     x="307.93"
     y="228.71"
     width="528"
     height="10"
     id="rect81"
     fill="#ededf4" />
  <rect
     x="307.93"
     y="257.71"
     width="528"
     height="10"
     id="rect83"
     fill="#ededf4" />
  <rect
     x="307.93"
     y="286.71"
     width="528"
     height="10"
     id="rect85"
     fill="#ededf4" />
  <rect
     x="458.21429"
     y="327.38211"
     width="435.72046"
     height="280.03079"
     id="rect89"
     style="fill:#f2f2f2;fill-opacity:0.94117647;stroke-width:1.09103167" />
  <ellipse
     cx="684.35223"
     cy="366.35834"
     id="circle93"
     style="fill:#ffd5d5;fill-opacity:1;stroke-width:1.29296434"
     rx="14.409377"
     ry="14.03826" />
  <path
     d="m 671.08576,384.1302 a 33.411424,28.796068 0 0 1 -4.57106,3.98165 36.312526,31.296419 0 0 0 26.20742,3.71901 c -0.32911,-0.78793 -1.52368,-0.90349 -2.36476,-1.3027 a 5.1074012,4.4018797 0 0 1 -2.07222,-2.81553 25.524816,21.998893 0 0 1 -0.78012,-8.5201 6.0947508,5.2528398 0 0 0 0,-2.10114 5.2292962,4.5069365 0 0 0 -2.52323,-2.39529 24.878773,21.442092 0 0 0 -6.09476,-2.36378 c -2.21848,-0.56731 -3.48618,-0.82995 -3.57151,1.39725 a 20.53931,17.70207 0 0 1 -4.22976,10.40063 z"
     id="path95"
     style="fill:#ffd5d5;fill-opacity:1;stroke-width:1.13163161"
     inkscape:connector-curvature="0" />
  <path
     d="m 730.84258,391.41599 -1.25257,-8.52957 a 29.513756,31.703591 0 0 0 -0.99535,-5.06969 30.430818,32.688698 0 0 0 -2.86303,-6.15091 8.4548691,9.0821961 0 0 0 -1.56571,-2.24652 6.5760092,7.0639303 0 0 0 -2.41568,-1.30947 9.7409933,10.463747 0 0 0 -7.00099,0.28833 c -1.75584,0.91302 -3.3551,2.64296 -5.31225,2.34262 a 4.0037607,4.3008284 0 0 1 1.81176,-3.35175 11.821159,12.698255 0 0 1 3.3551,-1.60982 c 0.63747,-0.21624 0.73813,-1.39356 0.6822,-2.11438 -0.10064,-1.33349 -1.87885,-1.62182 -2.58343,-2.71504 -0.70456,-1.09323 0,-2.87122 0.91706,-3.96445 a 9.6291564,10.343612 0 0 1 6.16222,-3.4719 6.4641723,6.9437954 0 0 1 6.08393,3.15955 23.664686,25.420538 0 0 1 1.21902,3.24364 20.13064,21.624277 0 0 0 3.53404,5.58628 c 3.35511,4.24076 6.16222,8.8299 9.193,13.32295 a 38.706749,41.578678 0 0 1 2.77355,4.49304 18.911619,20.314807 0 0 1 2.23674,8.62568 4.9991091,5.3700286 0 0 1 -0.36906,2.72707 3.9366586,4.2287474 0 0 1 -3.35511,2.06632 11.888262,12.770337 0 0 1 -4.01494,-0.86497 l -4.87609,-1.76598 a 3.1761677,3.4118303 0 0 1 -1.56572,-0.92504 1.2302058,1.3214835 0 0 1 0.20131,-1.76599 z"
     id="path97"
     style="fill:#ffd5d5;fill-opacity:1;stroke-width:1.15911651"
     inkscape:connector-curvature="0" />
  <path
     d="m 629.37406,395.52032 1.28284,-9.05458 a 31.839645,35.134329 0 0 1 1.04013,-5.38174 30.764841,33.948307 0 0 1 2.9586,-6.5295 8.1708274,9.0163233 0 0 1 1.60643,-2.37204 6.5412847,7.2181598 0 0 1 2.49632,-1.39008 10.100853,11.146063 0 0 1 7.24627,0.29333 c 1.81445,0.96922 3.4671,2.80564 5.48959,2.48681 a 4.1605344,4.5910557 0 0 0 -1.87224,-3.55807 12.354476,13.632885 0 0 0 -3.46711,-1.70888 c -0.65875,-0.22956 -0.76277,-1.47935 -0.70499,-2.24453 0.10397,-1.41557 1.93003,-1.72164 2.66968,-2.88215 0.73965,-1.16053 0,-3.04795 -0.95924,-4.19572 a 9.9390544,10.967522 0 0 0 -6.36792,-3.69835 6.6915262,7.3839479 0 0 0 -6.28703,3.35403 24.396912,26.92144 0 0 0 -1.24816,3.44329 21.04537,23.22309 0 0 1 -3.65202,5.9301 c -3.46711,4.5018 -6.36793,9.37341 -9.51145,14.14301 a 39.293936,43.35997 0 0 0 -2.85459,4.76959 19.727867,21.769255 0 0 0 -2.31141,9.15662 5.2353391,5.7770784 0 0 0 0.39294,2.90766 4.0796351,4.5017852 0 0 0 3.52491,2.18075 11.94998,13.186533 0 0 0 4.13741,-0.91821 l 5.05042,-1.82367 a 3.2013002,3.5325623 0 0 0 1.60644,-0.98198 1.2712744,1.4028226 0 0 0 -0.26582,-1.92569 z"
     id="path99"
     style="fill:#ffd5d5;fill-opacity:1;stroke-width:1.21402693"
     inkscape:connector-curvature="0" />
  <path
     d="m 722.45053,599.63865 c 1.49515,1.51626 2.80943,3.98776 2.11008,6.24699 -0.57876,1.83467 -2.23065,2.69894 -3.76197,3.15381 a 9.501359,11.948117 0 0 0 -4.35276,2.06211 13.263318,16.678844 0 0 1 -1.31427,1.56175 4.738622,5.958896 0 0 1 -2.91794,0.68232 c -1.83275,-0.091 -3.61728,-0.28809 -5.48618,-0.59134 a 2.1824187,2.7444279 0 0 1 -1.09725,-0.43972 2.3271094,2.9263789 0 0 1 -0.60287,-2.25922 23.066116,29.006025 0 0 1 0.21703,-6.88382 7.8374155,9.8556804 0 0 1 2.64061,-5.86792 c 1.39868,-1.36463 5.64294,-5.41304 7.23454,-2.82023 0.42201,0.69747 0.2532,1.65272 0.84402,2.22889 0.59083,0.57618 1.51925,0.25777 2.19448,0.3639 a 8.4402937,10.613809 0 0 1 4.29248,2.56248 z"
     id="path101"
     inkscape:connector-curvature="0"
     style="fill:#3f3d56;stroke-width:1.35212374" />
  <path
     d="m 642.8033,601.82895 c -1.48957,1.28593 -2.79897,3.38199 -2.10223,5.29803 0.56461,1.55598 2.21034,2.30182 3.73595,2.67474 a 9.4179603,10.081709 0 0 1 4.33659,1.74887 13.454229,14.402442 0 0 0 1.3214,1.38881 4.8050818,5.1437293 0 0 0 2.89505,0.57866 c 1.82594,-0.0771 3.60383,-0.24432 5.46579,-0.51437 a 2.1382615,2.2889596 0 0 0 1.09315,-0.37292 2.318452,2.4818493 0 0 0 0.61265,-1.91604 23.532888,25.191414 0 0 0 -0.22824,-5.82526 7.7481944,8.2942635 0 0 0 -2.63079,-4.98943 c -1.38145,-1.15734 -5.60993,-4.59078 -7.20761,-2.39183 -0.42045,0.59152 -0.25227,1.41453 -0.85291,1.89033 -0.60063,0.47579 -1.50158,0.2186 -2.1863,0.30861 a 8.4809693,9.078682 0 0 0 -4.2525,2.1218 z"
     id="path103"
     inkscape:connector-curvature="0"
     style="fill:#3f3d56;stroke-width:1.24288058" />
  <path
     d="m 661.68296,469.42719 c -5.90754,15.4591 -11.6448,31.45334 -11.19944,47.85189 0.28817,9.92952 2.61975,20.8698 -3.68077,29.01556 a 12.496227,11.344609 0 0 0 -2.1089,3.25831 c -0.49774,1.59348 0,3.28209 0.31438,4.92313 1.17889,7.13497 -3.05202,14.10348 -3.3533,21.30979 a 47.155578,42.809846 0 0 0 0.47157,6.63553 l 1.63736,12.70025 c 0.55015,4.35234 6.73276,6.13609 11.50071,6.74255 a 17.827428,16.1845 0 0 0 4.04752,-8.55007 c 0.40606,-2.37833 0.47156,-4.83989 0.62873,-7.2539 0.40607,-6.18363 1.38847,-12.31972 2.3578,-18.4439 l 1.30986,-7.88415 c 0.41916,-2.59237 0.82522,-5.18475 1.30989,-7.77713 a 269.38934,244.56314 0 0 1 11.30424,-41.18069 c 1.11339,-2.88967 3.01271,-6.25499 6.366,-6.33823 l 2.00412,3.49613 c 2.61975,4.43558 4.20469,9.3825 6.1957,14.05591 2.61976,6.14796 1.71595,13.30672 5.23951,19.09795 0.57635,0.95132 1.30989,1.86697 1.72904,2.86587 a 18.207293,16.529357 0 0 1 1.0741,4.75665 l 2.31848,21.26223 c 1.04791,9.57275 2.16131,19.40713 6.91616,28.00477 a 7.1650282,6.5047183 0 0 0 2.18749,2.61615 c 1.93862,1.18917 4.65006,0.5827 6.5494,-0.65404 a 11.173252,10.143555 0 0 0 4.53217,-8.776 14.50034,13.164028 0 0 1 -0.13099,-2.81832 20.643663,18.741199 0 0 1 1.07408,-2.77075 c 1.51947,-4.18585 -1.68973,-8.44305 -2.82932,-12.72404 -1.50636,-5.70798 0.73353,-11.67757 0.34058,-17.54014 -0.62875,-9.20411 -7.71517,-17.83744 -5.84206,-26.88697 1.50636,-7.242 0.22268,-14.68615 -1.19199,-21.94004 l -5.30501,-26.99399 c -0.83832,-4.2572 -2.09579,-9.06142 -6.27431,-11.14244 a 15.587538,14.151033 0 0 0 -7.6366,-1.18917 c -10.83266,0 -21.18071,1.36752 -31.8562,2.2713 z"
     id="path105"
     inkscape:connector-curvature="0"
     style="fill:#3f3d56;stroke-width:1.24806118" />
  <path
     d="m 745.62562,396.31934 a 16.24888,19.006611 0 0 1 -9.5448,-2.31271 19.15777,22.409193 0 0 0 -3.51112,-2.15319 c -2.27258,-0.86394 -4.7724,-0.10633 -7.1586,0.30572 a 27.952619,32.696687 0 0 1 -11.7151,-0.93042 c -3.977,-1.32911 -7.954,-3.73485 -12.04462,-2.65825 -1.92033,0.49176 -3.65884,1.72786 -5.60189,2.08673 a 14.908063,17.438234 0 0 1 -4.54514,-0.27912 l -12.95366,-2.36585 a 35.429377,41.442386 0 0 0 -8.88574,-0.74431 57.518764,67.280744 0 0 1 -6.81772,0.99684 c -2.39757,0 -4.76103,-1.0633 -7.1586,-0.87723 a 19.498656,22.807933 0 0 0 -4.1588,1.10319 64.006953,74.870096 0 0 1 -19.16914,2.99055 28.782108,33.666954 0 0 0 -14.41946,5.84819 2.2725706,2.6582672 0 0 0 -1.13628,1.84749 2.329385,2.7247239 0 0 0 0.89766,1.8342 c 1.72716,2.04687 3.55658,4.1469 5.89733,5.02413 a 35.713448,41.774669 0 0 0 4.40878,0.87724 c 3.5793,0.77088 6.88589,3.17661 10.52201,3.17661 2.51119,0 4.97693,-1.16962 7.45403,-0.7576 3.40885,0.54495 5.85187,3.76144 7.95399,6.8982 a 20.646304,24.150358 0 0 1 3.92018,8.34697 c 0.79541,3.69498 0.29544,7.84188 1.98851,11.09826 a 6.5677292,7.6823924 0 0 1 0.9772,2.19307 6.2495693,7.3102348 0 0 1 -0.69313,3.60195 c -1.43172,5.11716 1.70443,10.52674 1.3749,15.94961 -0.15908,2.56522 -1.13628,5.01082 -1.23855,7.57606 -0.15908,3.33613 0.98857,7.04441 -0.60223,9.809 a 40.735829,47.64944 0 0 1 19.82818,-5.064 24.861923,29.081444 0 0 1 3.40886,0.37217 47.723984,55.823612 0 0 1 6.4541,2.10002 c 4.74967,1.76776 9.97658,3.03043 14.65807,1.01014 1.1363,-3.2298 0.94312,-6.79187 0.59088,-10.24761 -0.35225,-3.45575 -1.07948,-6.85833 -1.52262,-10.30079 a 57.734657,67.533278 0 0 1 -0.59088,-8.34697 28.623028,33.480875 0 0 1 0.49997,-8.22732 33.338611,38.99678 0 0 1 2.12485,-6.9115 104.0951,121.76194 0 0 1 7.954,-18.60787 c 4.65877,-0.43861 9.16982,-0.90381 13.8286,-1.32914 a 21.418979,25.054169 0 0 0 3.30658,-0.51836 42.553886,49.776054 0 0 1 4.22699,-1.40888 5.579161,6.526046 0 0 0 1.56807,-0.37216 c 1.02266,-0.54495 1.65898,-2.06015 2.77253,-2.10004 a 5.3291782,6.2336366 0 0 0 1.27265,0 c 0.49996,-0.17278 0.73858,-0.82405 1.13628,-1.32912 0.70449,-0.91711 1.85215,-1.10318 2.77253,-1.688 a 3.9997244,4.6785503 0 0 0 1.67035,-5.5159 z"
     id="path107"
     style="fill:#b8daf2;fill-opacity:1;stroke-width:1.22893238"
     inkscape:connector-curvature="0" />
  <path
     d="M189.26,308.3a27.69,27.69,0,0,0-3.91-4.18,3.36,3.36,0,0,1,.37-5.35c.48-.31.95-.64,1.42-1,5.46-4.15,8.22-9.72,6.15-12.45s-8.18-1.57-13.64,2.58a21,21,0,0,0-1.81,1.51,3.35,3.35,0,0,1-5.24-1,28.28,28.28,0,0,0-2.69-4.28c-4.86-6.4-11.38-9.63-14.57-7.21s-1.85,9.58,3,16a27.58,27.58,0,0,0,3.15,3.5,3.38,3.38,0,0,1-.74,5.39l0,0c-6,3.43-9.39,8.6-7.69,11.57s7.92,2.6,13.87-.82a26.13,26.13,0,0,0,2.66-1.77,3.38,3.38,0,0,1,5.1,1.24,26.26,26.26,0,0,0,3,5c4.85,6.4,11.38,9.63,14.57,7.21S194.11,314.71,189.26,308.3Z"
     transform="translate(-16.24 -71.99)"
     fill="#6c63ff"
     opacity="0.1"
     id="path113"
     style="fill:#f2f2f2;fill-opacity:1;opacity:1" />
  <path
     d="m 1073.551,430.74374 a 27.22,27.22 0 0 0 2.87,-4.95 3.34,3.34 0 0 1 5.21,-1.2 c 0.44,0.36 0.9,0.71 1.37,1.06 5.56,4 11.7,5 13.7,2.25 2,-2.75 -0.88,-8.28 -6.44,-12.3 q -1,-0.71 -2,-1.29 a 3.35,3.35 0 0 1 -0.55,-5.31 27.17,27.17 0 0 0 3.3,-3.82 c 4.71,-6.51 5.89,-13.69 2.65,-16 -3.24,-2.31 -9.7,1 -14.41,7.55 a 28.2,28.2 0 0 0 -2.43,4 3.38,3.38 0 0 1 -5.37,0.87 v 0 c -5,-4.69 -11,-6.47 -13.31,-4 -2.31,2.47 -0.17,8.33 4.84,13 a 24.14,24.14 0 0 0 2.47,2 3.38,3.38 0 0 1 0.29,5.24 26.85,26.85 0 0 0 -3.93,4.39 c -4.71,6.51 -5.89,13.69 -2.64,16 3.25,2.31 9.67,-0.97 14.38,-7.49 z"
     id="path115"
     style="opacity:0.51000001;fill:#f2f2f2;fill-opacity:1"
     inkscape:connector-curvature="0" />
  <ellipse
     cx="886.46"
     cy="740.19"
     rx="33.8"
     ry="6.5"
     fill="#6c63ff"
     id="ellipse117"
     style="fill:#345770;fill-opacity:1" />
  <ellipse
     cx="885.9"
     cy="737.43"
     rx="3.94"
     ry="5.15"
     fill="#3f3d56"
     id="ellipse119" />
  <ellipse
     cx="885.9"
     cy="731.13"
     rx="3.94"
     ry="5.15"
     fill="#3f3d56"
     id="ellipse121" />
  <ellipse
     cx="885.9"
     cy="724.84"
     rx="3.94"
     ry="5.15"
     fill="#3f3d56"
     id="ellipse123" />
  <ellipse
     cx="885.9"
     cy="718.54"
     rx="3.94"
     ry="5.15"
     fill="#3f3d56"
     id="ellipse125" />
  <ellipse
     cx="885.9"
     cy="712.24"
     rx="3.94"
     ry="5.15"
     fill="#3f3d56"
     id="ellipse127" />
  <ellipse
     cx="885.9"
     cy="705.95"
     rx="3.94"
     ry="5.15"
     fill="#3f3d56"
     id="ellipse129" />
  <ellipse
     cx="885.9"
     cy="699.65"
     rx="3.94"
     ry="5.15"
     fill="#3f3d56"
     id="ellipse131" />
  <path
     d="M916.87,728.55a19.94,19.94,0,0,0,1.46-2.16L908,724.69l11.18.09a18.84,18.84,0,0,0,.36-14.94l-15,7.78,13.84-10.17a18.85,18.85,0,1,0-31.14,21.1,19.29,19.29,0,0,0-2.15,3.44l13.43,7-14.32-4.8a18.89,18.89,0,0,0,3,17.7,18.85,18.85,0,1,0,29.64,0,18.87,18.87,0,0,0,0-23.31Z"
     transform="translate(-16.24 -71.99)"
     fill="#6c63ff"
     id="path133"
     style="fill:#345770;fill-opacity:1" />
  <path
     d="M883.2,740.2a18.83,18.83,0,0,0,4,11.66,18.85,18.85,0,1,0,29.64,0C919.39,748.65,883.2,738.09,883.2,740.2Z"
     transform="translate(-16.24 -71.99)"
     opacity="0.1"
     id="path135" />
  <ellipse
     cx="270.46"
     cy="741.74"
     rx="15.3"
     ry="2.94"
     fill="#6c63ff"
     id="ellipse137"
     style="fill:#556570;fill-opacity:1" />
  <ellipse
     cx="270.21"
     cy="740.49"
     rx="1.78"
     ry="2.33"
     fill="#3f3d56"
     id="ellipse139" />
  <ellipse
     cx="270.21"
     cy="737.64"
     rx="1.78"
     ry="2.33"
     fill="#3f3d56"
     id="ellipse141" />
  <ellipse
     cx="270.21"
     cy="734.79"
     rx="1.78"
     ry="2.33"
     fill="#3f3d56"
     id="ellipse143" />
  <ellipse
     cx="270.21"
     cy="731.94"
     rx="1.78"
     ry="2.33"
     fill="#3f3d56"
     id="ellipse145" />
  <ellipse
     cx="270.21"
     cy="729.09"
     rx="1.78"
     ry="2.33"
     fill="#3f3d56"
     id="ellipse147" />
  <ellipse
     cx="270.21"
     cy="726.24"
     rx="1.78"
     ry="2.33"
     fill="#3f3d56"
     id="ellipse149" />
  <ellipse
     cx="270.21"
     cy="723.39"
     rx="1.78"
     ry="2.33"
     fill="#3f3d56"
     id="ellipse151" />
  <path
     d="M293.11,775.87a8.08,8.08,0,0,0,.67-1l-4.68-.77,5.06,0a8.54,8.54,0,0,0,.78-3.57,8.43,8.43,0,0,0-.62-3.19l-6.79,3.52,6.26-4.6a8.53,8.53,0,1,0-14.09,9.55,8.57,8.57,0,0,0-1,1.55l6.07,3.16-6.48-2.18a8.54,8.54,0,0,0,1.38,8,8.54,8.54,0,1,0,13.41,0,8.52,8.52,0,0,0,0-10.55Z"
     transform="translate(-16.24 -71.99)"
     fill="#6c63ff"
     id="path153"
     style="fill:#556570;fill-opacity:1" />
  <path
     d="M277.87,781.14a8.53,8.53,0,0,0,1.83,5.28,8.54,8.54,0,1,0,13.41,0C294.26,785,277.87,780.18,277.87,781.14Z"
     transform="translate(-16.24 -71.99)"
     opacity="0.1"
     id="path155" />
  <g
     id="g1380"
     transform="matrix(1.3925819,0.02836322,-0.02631468,1.2920025,-1683.276,-319.68913)"
     inkscape:transform-center-x="-4.2473037"
     inkscape:transform-center-y="1.2741911">
    <path
       style="fill:#decd87;fill-opacity:1;stroke-width:0.15762129"
       id="path42-8"
       d="m 1715.5867,489.80377 c 0,-5e-5 0.3796,0.0623 1.0637,0.1453 0.684,0.083 1.1748,-0.19284 2.6599,-0.21829 0.1748,-0.33477 0.1948,-0.72854 0.2029,-1.10771 0.025,-1.14978 -0.057,-2.39275 -0.7716,-3.28256 -0.4549,-0.56629 -0.5852,-1.20618 -1.0561,-1.75873 -0.3374,-0.39586 -0.8874,-0.98477 -1.1291,-1.44763 -0.9159,-1.75323 -2.4802,-3.04623 -4.3647,-3.55167 -0.7868,-0.21106 -1.6123,-0.20075 -2.426,-0.18905 l -4.7456,0.0682 c -0.768,0.011 -1.5478,0.0239 -2.2831,0.25045 -1.5274,0.47076 -2.6396,1.78007 -3.6581,3.03221 -0.7621,0.93678 -1.5262,1.88325 -2.0981,2.95145 -0.82,1.55885 -1.2346,3.30579 -1.2044,5.07431 -0.01,0.45358 0.051,0.90574 0.1707,1.3427 0.1398,0.40074 0.313,0.78855 0.5177,1.15917 0.8899,1.78179 1.4184,4.00738 0.4161,5.72611 1.7411,-0.72495 3.4637,-1.67544 4.6122,-3.19348 0.5137,-0.67911 0.9168,-1.47411 1.6014,-1.97245 0.6847,-0.49834 1.8004,-0.54157 2.2397,0.18981 0.151,0.29587 0.2288,0.62488 0.2265,0.95839 0.032,0.54899 0.031,1.11912 0.2596,1.61741 0.2283,0.49829 0.7723,0.90032 1.2916,0.75122 0.8944,-0.25679 0.8088,-1.65597 1.4976,-2.29156 0.5232,-0.48269 1.3303,-0.39041 2.0024,-0.60952 0.7831,-0.2553 1.3706,-0.94679 1.7054,-1.7122 0.2545,-0.5818 0.2509,-2.10425 0.7323,-2.41932 0.604,-0.3951 1.9772,0.23304 2.5371,0.48739 z"
       inkscape:connector-curvature="0"
       sodipodi:nodetypes="ccccccccccccccccccccccccccccc" />
  </g>
  <path
     d="M 646.24461,612.78736 H 627.31 a 2.4739507,1.5908563 0 0 0 0,3.11932 h 3.78368 v 20.66034 h -64.79163 a 1.794827,1.1541506 0 0 0 -1.4391,-0.56148 H 545.9445 a 2.4739507,1.5908563 0 0 0 0,3.11933 h 3.7837 v 21.22181 h -62.56023 a 2.0050319,1.2893215 0 0 0 -1.77865,-1.12296 h -18.9023 a 2.4577811,1.5804586 0 0 0 0,3.11933 h 1.89186 v 21.83529 h -63.59509 a 1.6169613,1.0397754 0 0 0 -0.77614,-0.13517 H 385.0892 a 2.4739507,1.5908563 0 0 0 0,3.11932 h 1.89184 V 707.958 h -62.7866 a 1.8109966,1.1645484 0 0 0 -1.61696,-0.70705 h -18.91846 a 2.4739507,1.5908563 0 0 0 0,3.11933 h 1.89186 V 733.4013 H 733.28564 V 612.78736 Z"
     id="path111"
     inkscape:connector-curvature="0"
     style="fill:#3f3d56;stroke-width:1.2966404" />
  <g
     id="g1823"
     transform="translate(-1229.1518,-480.65224)">
    <circle
       style="fill:#b8daf2;fill-opacity:1"
       id="circle54-8"
       r="5.61624"
       cy="615.34894"
       cx="1330.8735" />
    <circle
       style="fill:#b8daf2;fill-opacity:1"
       id="circle56-4"
       r="5.61624"
       cy="615.34894"
       cx="1350.1289" />
    <circle
       style="fill:#b8daf2;fill-opacity:1"
       id="circle58-7"
       r="5.61624"
       cy="615.34894"
       cx="1369.3844" />
    <path
       id="path64-6"
       d="m 1332.4783,619.36054 a 6.41848,6.41848 0 1 1 6.4185,-6.41848 6.42592,6.42592 0 0 1 -6.4185,6.41848 z m 0,-11.23234 a 4.81386,4.81386 0 1 0 4.8139,4.81386 4.81945,4.81945 0 0 0 -4.8139,-4.81386 z"
       inkscape:connector-curvature="0"
       style="fill:#3f3d56" />
    <path
       id="path66-5"
       d="m 1351.7338,619.36054 a 6.41848,6.41848 0 1 1 6.4185,-6.41848 6.42592,6.42592 0 0 1 -6.4185,6.41848 z m 0,-11.23234 a 4.81386,4.81386 0 1 0 4.8138,4.81386 4.81945,4.81945 0 0 0 -4.8138,-4.81386 z"
       inkscape:connector-curvature="0"
       style="fill:#3f3d56" />
    <path
       id="path68-6"
       d="m 1370.9892,619.36054 a 6.41848,6.41848 0 1 1 6.4185,-6.41849 6.42593,6.42593 0 0 1 -6.4185,6.41849 z m 0,-11.23234 a 4.81386,4.81386 0 1 0 4.8139,4.81386 4.81946,4.81946 0 0 0 -4.8139,-4.81386 z"
       inkscape:connector-curvature="0"
       style="fill:#3f3d56" />
  </g>
</svg>
