<?xml version="1.0" encoding="UTF-8" standalone="no"?>
<svg
   xmlns:dc="http://purl.org/dc/elements/1.1/"
   xmlns:cc="http://creativecommons.org/ns#"
   xmlns:rdf="http://www.w3.org/1999/02/22-rdf-syntax-ns#"
   xmlns:svg="http://www.w3.org/2000/svg"
   xmlns="http://www.w3.org/2000/svg"
   xmlns:sodipodi="http://sodipodi.sourceforge.net/DTD/sodipodi-0.dtd"
   xmlns:inkscape="http://www.inkscape.org/namespaces/inkscape"
   id="a43d747c-6876-4129-84aa-b1e8252c37ae"
   data-name="Layer 1"
   width="643"
   height="447.57029"
   viewBox="0 0 643 447.57029"
   version="1.1"
   sodipodi:docname="undraw_Search_re_x5gq.svg"
   inkscape:version="0.92.4 (5da689c313, 2019-01-14)">
  <metadata
     id="metadata27">
    <rdf:RDF>
      <cc:Work
         rdf:about="">
        <dc:format>image/svg+xml</dc:format>
        <dc:type
           rdf:resource="http://purl.org/dc/dcmitype/StillImage" />
        <dc:title></dc:title>
      </cc:Work>
    </rdf:RDF>
  </metadata>
  <defs
     id="defs25" />
  <sodipodi:namedview
     pagecolor="#ffffff"
     bordercolor="#666666"
     borderopacity="1"
     objecttolerance="10"
     gridtolerance="10"
     guidetolerance="10"
     inkscape:pageopacity="0"
     inkscape:pageshadow="2"
     inkscape:window-width="2880"
     inkscape:window-height="1526"
     id="namedview23"
     showgrid="false"
     inkscape:zoom="1.4914055"
     inkscape:cx="187.35842"
     inkscape:cy="229.93277"
     inkscape:window-x="2869"
     inkscape:window-y="-11"
     inkscape:window-maximized="1"
     inkscape:current-layer="a43d747c-6876-4129-84aa-b1e8252c37ae" />
  <path
     d="M891.62348,313.02059H308.47961a29.96193,29.96193,0,0,1-29.92806-29.92807V255.88519a29.96193,29.96193,0,0,1,29.92806-29.92807H891.62348a29.96193,29.96193,0,0,1,29.92807,29.92807v27.20733A29.96193,29.96193,0,0,1,891.62348,313.02059ZM308.47961,227.77094a28.14617,28.14617,0,0,0-28.11424,28.11425v27.20733a28.14617,28.14617,0,0,0,28.11424,28.11425H891.62348a28.14617,28.14617,0,0,0,28.11424-28.11425V255.88519a28.14617,28.14617,0,0,0-28.11424-28.11425Z"
     transform="translate(-278.55155 -225.95712)"
     fill="#3f3d56"
     id="path2" />
  <rect
     x="57.1354"
     y="26.30042"
     width="421.71368"
     height="34.46262"
     rx="17.23129"
     fill="#e6e6e6"
     id="rect4" />
  <rect
     x="107.92243"
     y="177.43018"
     width="421.71368"
     height="34.46262"
     rx="17.23129"
     fill="#6c63ff"
     id="rect6"
     style="fill:#6ebaf0;fill-opacity:1" />
  <rect
     x="107.92243"
     y="287.00423"
     width="421.71368"
     height="34.46262"
     rx="17.23129"
     fill="#e6e6e6"
     id="rect8" />
  <rect
     x="107.92243"
     y="396.57828"
     width="421.71368"
     height="34.46262"
     rx="17.23129"
     fill="#e6e6e6"
     id="rect10" />
  <path
     d="M864.86391,288.10449a2.71409,2.71409,0,0,1-3.7799.66654l-14.80667-10.30275a2.714,2.714,0,1,1,3.11336-4.44644l14.80667,10.30275A2.71408,2.71408,0,0,1,864.86391,288.10449Z"
     transform="translate(-278.55155 -225.95712)"
     fill="#6c63ff"
     id="path12"
     style="fill:#6ebaf0;fill-opacity:1" />
  <path
     d="M848.054,276.39907a19.26672,19.26672,0,1,1-4.73174-26.83326A19.28854,19.28854,0,0,1,848.054,276.39907Zm-27.61937-19.33883a14.45,14.45,0,1,0,20.12494-3.5488A14.46638,14.46638,0,0,0,820.43461,257.06024Z"
     transform="translate(-278.55155 -225.95712)"
     fill="#6c63ff"
     id="path14"
     style="fill:#6ebaf0;fill-opacity:0.97254902" />
  <path
     d="M874.84562,454.28942H325.25747a.90691.90691,0,1,1,0-1.81382H874.84562a.90691.90691,0,1,1,0,1.81382Z"
     transform="translate(-278.55155 -225.95712)"
     fill="#3f3d56"
     id="path16" />
  <path
     d="M874.84562,563.90864H325.25747a.90691.90691,0,0,1,0-1.81382H874.84562a.90691.90691,0,0,1,0,1.81382Z"
     transform="translate(-278.55155 -225.95712)"
     fill="#3f3d56"
     id="path18" />
  <path
     d="M874.84562,673.52741H325.25747a.90691.90691,0,0,1,0-1.81382H874.84562a.90691.90691,0,1,1,0,1.81382Z"
     transform="translate(-278.55155 -225.95712)"
     fill="#3f3d56"
     id="path20" />
</svg>
