<?xml version="1.0" encoding="UTF-8" standalone="no"?>
<svg
   xmlns:dc="http://purl.org/dc/elements/1.1/"
   xmlns:cc="http://creativecommons.org/ns#"
   xmlns:rdf="http://www.w3.org/1999/02/22-rdf-syntax-ns#"
   xmlns:svg="http://www.w3.org/2000/svg"
   xmlns="http://www.w3.org/2000/svg"
   xmlns:sodipodi="http://sodipodi.sourceforge.net/DTD/sodipodi-0.dtd"
   xmlns:inkscape="http://www.inkscape.org/namespaces/inkscape"
   id="b8c64dc2-e86a-49bc-92bf-164106d9e7fb"
   data-name="Layer 1"
   width="887.87284"
   height="569.68008"
   viewBox="0 0 887.87284 569.68008"
   version="1.1"
   sodipodi:docname="web-development-icon.svg"
   inkscape:version="0.92.4 (5da689c313, 2019-01-14)">
  <metadata
     id="metadata99">
    <rdf:RDF>
      <cc:Work
         rdf:about="">
        <dc:format>image/svg+xml</dc:format>
        <dc:type
           rdf:resource="http://purl.org/dc/dcmitype/StillImage" />
        <dc:title>proud_coder</dc:title>
      </cc:Work>
    </rdf:RDF>
  </metadata>
  <defs
     id="defs97" />
  <sodipodi:namedview
     pagecolor="#ffffff"
     bordercolor="#666666"
     borderopacity="1"
     objecttolerance="10"
     gridtolerance="10"
     guidetolerance="10"
     inkscape:pageopacity="0"
     inkscape:pageshadow="2"
     inkscape:window-width="2880"
     inkscape:window-height="1526"
     id="namedview95"
     showgrid="false"
     inkscape:zoom="1.6570705"
     inkscape:cx="314.70349"
     inkscape:cy="258.37803"
     inkscape:window-x="2869"
     inkscape:window-y="-11"
     inkscape:window-maximized="1"
     inkscape:current-layer="b8c64dc2-e86a-49bc-92bf-164106d9e7fb" />
  <title
     id="title2">proud_coder</title>
  <rect
     x="208.21873"
     y="43.19334"
     width="611.46149"
     height="391.60712"
     id="rect4"
     style="fill:#e6e6e6" />
  <rect
     x="225.70332"
     y="92.310638"
     width="576.49225"
     height="319.3223"
     id="rect6"
     style="fill:#ffffff" />
  <rect
     x="207.95766"
     width="611.46149"
     height="25.977119"
     id="rect8"
     y="42.846699"
     style="fill:#6ebaf0;fill-opacity:1" />
  <circle
     cx="227.26176"
     cy="56.127579"
     r="4.8146601"
     id="circle10"
     style="fill:#ffffff" />
  <circle
     cx="245.537"
     cy="56.127579"
     r="4.8146601"
     id="circle12"
     style="fill:#ffffff" />
  <circle
     cx="263.81226"
     cy="56.127579"
     r="4.8146601"
     id="circle14"
     style="fill:#ffffff" />
  <path
     d="M 639.07424,122.2193 H 451.3871 a 1.66587,1.66587 0 0 1 0,-3.30318 h 187.68714 a 1.66587,1.66587 0 0 1 0,3.30318 z"
     id="path16"
     inkscape:connector-curvature="0"
     style="fill:#cccccc" />
  <path
     d="M 509.02559,140.38674 H 389.69365 a 1.66587,1.66587 0 0 1 0,-3.30317 h 119.33194 a 1.66587,1.66587 0 0 1 0,3.30317 z"
     id="path18"
     inkscape:connector-curvature="0"
     style="fill:#cccccc" />
  <path
     d="M 639.07424,140.71707 H 519.74229 a 1.66587,1.66587 0 0 1 0,-3.30317 h 119.332 a 1.66587,1.66587 0 0 1 0,3.30317 z"
     id="path20"
     inkscape:connector-curvature="0"
     style="fill:#cccccc" />
  <path
     d="M 509.31523,158.55421 H 389.98329 a 1.66587,1.66587 0 0 1 0,-3.30317 h 119.33194 a 1.66587,1.66587 0 0 1 0,3.30317 z"
     id="path22"
     inkscape:connector-curvature="0"
     style="fill:#cccccc" />
  <path
     d="M 509.60487,176.72167 H 390.27293 a 1.66587,1.66587 0 0 1 0,-3.30317 h 119.33194 a 1.66587,1.66587 0 0 1 0,3.30317 z"
     id="path24"
     inkscape:connector-curvature="0"
     style="fill:#cccccc" />
  <path
     d="m 563.76767,158.55421 h -34.17759 a 1.66587,1.66587 0 0 1 0,-3.30317 h 34.17759 a 1.66587,1.66587 0 0 1 0,3.30317 z"
     id="path26"
     inkscape:connector-curvature="0"
     style="fill:#cccccc" />
  <path
     d="m 563.76767,176.39135 h -34.17759 a 1.66587,1.66587 0 0 1 0,-3.30317 h 34.17759 a 1.66587,1.66587 0 0 1 0,3.30317 z"
     id="path28"
     inkscape:connector-curvature="0"
     style="fill:#cccccc" />
  <path
     d="m 621.11652,176.39135 h -34.1776 a 1.66587,1.66587 0 0 1 0,-3.30317 h 34.1776 a 1.66587,1.66587 0 0 1 0,3.30317 z"
     id="path30"
     inkscape:connector-curvature="0"
     style="fill:#cccccc" />
  <path
     d="m 423.00232,122.2193 h -34.1776 a 1.66587,1.66587 0 0 1 0,-3.30318 h 34.1776 a 1.66587,1.66587 0 0 1 0,3.30318 z"
     id="path32"
     inkscape:connector-curvature="0"
     style="fill:#cccccc" />
  <path
     d="M 508.59113,330.52509 H 389.25918 a 1.66587,1.66587 0 0 1 0,-3.30317 h 119.332 a 1.66587,1.66587 0 0 1 0,3.30317 z"
     id="path34"
     inkscape:connector-curvature="0"
     style="fill:#cccccc" />
  <path
     d="M 508.01185,366.86001 H 388.6799 a 1.66587,1.66587 0 0 1 0,-3.30318 h 119.332 a 1.66587,1.66587 0 0 1 0,3.30318 z"
     id="path36"
     inkscape:connector-curvature="0"
     style="fill:#cccccc" />
  <path
     d="M 508.30149,385.02747 H 388.96954 a 1.66587,1.66587 0 0 1 0,-3.30318 h 119.332 a 1.66587,1.66587 0 0 1 0,3.30318 z"
     id="path38"
     inkscape:connector-curvature="0"
     style="fill:#cccccc" />
  <path
     d="m 559.27824,367.19033 h -34.17759 a 1.66587,1.66587 0 0 1 0,-3.30318 h 34.17759 a 1.66587,1.66587 0 0 1 0,3.30318 z"
     id="path40"
     inkscape:connector-curvature="0"
     style="fill:#cccccc" />
  <path
     d="m 559.27824,385.02747 h -34.17759 a 1.66587,1.66587 0 0 1 0,-3.30318 h 34.17759 a 1.66587,1.66587 0 0 1 0,3.30318 z"
     id="path42"
     inkscape:connector-curvature="0"
     style="fill:#cccccc" />
  <path
     d="m 616.62709,367.19033 h -34.1776 a 1.66587,1.66587 0 0 1 0,-3.30318 h 34.1776 a 1.66587,1.66587 0 0 1 0,3.30318 z"
     id="path44"
     inkscape:connector-curvature="0"
     style="fill:#cccccc" />
  <path
     d="M 639.21906,348.69255 H 451.53192 a 1.66587,1.66587 0 0 1 0,-3.30317 h 187.68714 a 1.66587,1.66587 0 0 1 0,3.30317 z"
     id="path46"
     inkscape:connector-curvature="0"
     style="fill:#cccccc" />
  <path
     d="m 423.14714,348.69255 h -34.1776 a 1.66587,1.66587 0 0 1 0,-3.30317 h 34.1776 a 1.66587,1.66587 0 0 1 0,3.30317 z"
     id="path48"
     inkscape:connector-curvature="0"
     style="fill:#cccccc" />
  <polygon
     points="547.965,254.748 558.392,244.321 523.345,209.274 558.681,173.938 547.965,163.221 501.622,208.985 "
     id="polygon50"
     transform="translate(-68.192632,42.846699)"
     style="fill:#e6e6e6" />
  <polygon
     points="616.32,254.748 605.893,244.321 640.939,209.274 605.603,173.938 616.32,163.221 662.662,208.985 "
     id="polygon52"
     transform="translate(-68.192632,42.846699)"
     style="fill:#e6e6e6" />
  <polygon
     points="547.965,254.748 558.392,244.321 523.345,209.274 558.681,173.938 547.965,163.221 501.622,208.985 "
     id="polygon54"
     transform="translate(-68.192632,42.846699)"
     style="fill:#6ebaf0;fill-opacity:1" />
  <polygon
     points="616.32,254.748 605.893,244.321 640.939,209.274 605.603,173.938 616.32,163.221 662.662,208.985 "
     id="polygon56"
     transform="translate(-68.192632,42.846699)"
     style="fill:#6ebaf0;fill-opacity:1" />
  <path
     d="M626.6665,711.1954c14.41965,19.311,44.352,21.34353,44.352,21.34353s6.55352-29.2768-7.86613-48.5878-44.352-21.34353-44.352-21.34353S612.24685,691.88439,626.6665,711.1954Z"
     transform="translate(-156.06358 -165.15996)"
     fill="#e6e6e6"
     id="path58"
     style="fill:#345770;fill-opacity:1" />
  <path
     d="M700.12323,718.455c-9.5151,12.74275-29.26658,14.08395-29.26658,14.08395s-4.32447-19.31887,5.19062-32.06162,29.26658-14.084,29.26658-14.084S709.63832,705.71222,700.12323,718.455Z"
     transform="translate(-156.06358 -165.15996)"
     fill="#e6e6e6"
     id="path60" />
  <rect
     y="567.37896"
     width="702.90551"
     height="2.24072"
     fill="#3f3d56"
     id="rect92"
     style="fill:#345770;fill-opacity:1" />
</svg>
